<svg xmlns="http://www.w3.org/2000/svg" viewBox="0 0 128 128">
  <circle cx="64" cy="64" r="64" fill="#2AABEE"/>
  <path fill="#FFFFFF" d="M96.15 37.82c2.55-1.05 5.33 1.1 4.91 3.82l-10.87 70.61c-.42 2.72-3.52 4.03-5.75 2.44L55.9 93.79 40.41 108.7c-1.85 1.78-4.96.74-5.34-1.79l-4.33-28.53-20.62-6.48c-3.07-.97-3.26-5.24-.29-6.48l86.32-35.6ZM43.59 76.12l3.18 20.93 8.89-8.56 28.84 16.03 9.23-59.97-50.14 31.57Zm-7.16-2.25 46.11-29.03-55.97 23.09 9.86 3.1Zm2.5 3.22 13.39 8.2 25.5-24.93c1.67-1.64 4.25.58 2.89 2.49L55.6 86.2l-16.67-10.21Z"/>
</svg>
